<svg width="234" height="146" viewBox="0 0 234 146" fill="none" xmlns="http://www.w3.org/2000/svg">
<path d="M207.38 102.88L200.793 95.6836C200.793 95.6836 228.282 73.241 230.379 72.1425C230.379 72.1425 233.87 71.5504 233.745 75.0483C230.915 79.2062 207.38 102.88 207.38 102.88Z" fill="white"/>
<path d="M199.096 96.9799C195.343 95.8265 189.244 101.846 186.89 106.137L189.299 106.367C189.299 106.367 187.21 109.255 184.991 109.209C184.579 109.201 184.117 109.831 184.117 109.831C184.117 109.831 188.184 112.593 192.398 112.995L192.4 112.995C197.027 113.437 202.882 112.042 205.543 104.304C205.535 104.31 205.55 104.298 205.543 104.304L199.099 96.9769C199.099 96.9769 202.848 98.1334 199.096 96.9799Z" fill="white"/>
<path d="M185.541 120.495L181.465 116.562C181.465 116.562 83.3998 117.802 87.55 128.258C89.4229 132.976 172.967 126.274 171.493 135.035C170.019 143.796 151.634 145.699 151.634 145.699H132.903C132.903 145.699 166.03 140.295 166.03 135.035C166.03 129.775 85.555 139.628 82.0868 129.227C78.5284 118.555 185.541 120.495 185.541 120.495Z" fill="white"/>
<path d="M16.808 15.2C19.4773 15.2 21.7947 15.64 23.76 16.52C25.7547 17.4 27.28 18.6613 28.336 20.304C29.392 21.9467 29.92 23.8973 29.92 26.156C29.92 28.3853 29.392 30.336 28.336 32.008C27.28 33.6507 25.7547 34.912 23.76 35.792C21.7947 36.672 19.4773 37.112 16.808 37.112H9.856V46H4.136V15.2H16.808ZM16.544 32.272C19.0373 32.272 20.9293 31.744 22.22 30.688C23.5107 29.632 24.156 28.1213 24.156 26.156C24.156 24.1907 23.5107 22.68 22.22 21.624C20.9293 20.568 19.0373 20.04 16.544 20.04H9.856V32.272H16.544ZM43.8653 22.24C47.3266 22.24 49.9666 23.076 51.7853 24.748C53.6333 26.3907 54.5573 28.884 54.5573 32.228V46H49.3653V43.14C48.6906 44.1667 47.7226 44.9587 46.4613 45.516C45.2293 46.044 43.7333 46.308 41.9733 46.308C40.2133 46.308 38.6733 46.0147 37.3533 45.428C36.0333 44.812 35.0066 43.976 34.2733 42.92C33.5693 41.8347 33.2173 40.6173 33.2173 39.268C33.2173 37.156 33.9946 35.4693 35.5493 34.208C37.1333 32.9173 39.6119 32.272 42.9853 32.272H49.0573V31.92C49.0573 30.2773 48.5586 29.016 47.5613 28.136C46.5933 27.256 45.1413 26.816 43.2053 26.816C41.8853 26.816 40.5799 27.0213 39.2893 27.432C38.0279 27.8427 36.9573 28.4147 36.0773 29.148L33.9213 25.144C35.1533 24.2053 36.6346 23.4867 38.3653 22.988C40.0959 22.4893 41.9293 22.24 43.8653 22.24ZM43.1173 42.304C44.4959 42.304 45.7133 41.996 46.7693 41.38C47.8546 40.7347 48.6173 39.8253 49.0573 38.652V35.924H43.3813C40.2133 35.924 38.6293 36.9653 38.6293 39.048C38.6293 40.0453 39.0253 40.8373 39.8173 41.424C40.6093 42.0107 41.7093 42.304 43.1173 42.304ZM61.6158 22.504H67.1158V46H61.6158V22.504ZM64.3878 18.632C63.3905 18.632 62.5545 18.324 61.8798 17.708C61.2051 17.0627 60.8678 16.2707 60.8678 15.332C60.8678 14.3933 61.2051 13.616 61.8798 13C62.5545 12.3547 63.3905 12.032 64.3878 12.032C65.3851 12.032 66.2211 12.34 66.8958 12.956C67.5705 13.5427 67.9078 14.2907 67.9078 15.2C67.9078 16.168 67.5705 16.9893 66.8958 17.664C66.2505 18.3093 65.4145 18.632 64.3878 18.632ZM87.6666 22.24C90.6292 22.24 93.0052 23.1053 94.7946 24.836C96.5839 26.5667 97.4786 29.1333 97.4786 32.536V46H91.9786V33.24C91.9786 31.1867 91.4946 29.6467 90.5266 28.62C89.5586 27.564 88.1799 27.036 86.3906 27.036C84.3666 27.036 82.7679 27.652 81.5946 28.884C80.4212 30.0867 79.8346 31.832 79.8346 34.12V46H74.3346V22.504H79.5706V25.54C80.4799 24.4547 81.6239 23.6333 83.0026 23.076C84.3812 22.5187 85.9359 22.24 87.6666 22.24ZM118.58 44.724C117.934 45.252 117.142 45.648 116.204 45.912C115.294 46.176 114.326 46.308 113.3 46.308C110.718 46.308 108.724 45.6333 107.316 44.284C105.908 42.9347 105.204 40.9693 105.204 38.388V27.08H101.332V22.68H105.204V17.312H110.704V22.68H116.996V27.08H110.704V38.256C110.704 39.4 110.982 40.28 111.54 40.896C112.097 41.4827 112.904 41.776 113.96 41.776C115.192 41.776 116.218 41.4533 117.04 40.808L118.58 44.724ZM157.264 22.504L146.264 47.892C145.238 50.444 143.991 52.2333 142.524 53.26C141.058 54.316 139.283 54.844 137.2 54.844C136.027 54.844 134.868 54.6533 133.724 54.272C132.58 53.8907 131.642 53.3627 130.908 52.688L133.108 48.64C133.636 49.1387 134.252 49.5347 134.956 49.828C135.69 50.1213 136.423 50.268 137.156 50.268C138.124 50.268 138.916 50.0187 139.532 49.52C140.178 49.0213 140.764 48.1853 141.292 47.012L141.688 46.088L131.436 22.504H137.156L144.548 39.884L151.984 22.504H157.264ZM170.617 46.308C168.241 46.308 166.1 45.7947 164.193 44.768C162.287 43.7413 160.791 42.3187 159.705 40.5C158.649 38.652 158.121 36.5693 158.121 34.252C158.121 31.9347 158.649 29.8667 159.705 28.048C160.791 26.2293 162.287 24.8067 164.193 23.78C166.1 22.7533 168.241 22.24 170.617 22.24C173.023 22.24 175.179 22.7533 177.085 23.78C178.992 24.8067 180.473 26.2293 181.529 28.048C182.615 29.8667 183.157 31.9347 183.157 34.252C183.157 36.5693 182.615 38.652 181.529 40.5C180.473 42.3187 178.992 43.7413 177.085 44.768C175.179 45.7947 173.023 46.308 170.617 46.308ZM170.617 41.6C172.641 41.6 174.313 40.9253 175.633 39.576C176.953 38.2267 177.613 36.452 177.613 34.252C177.613 32.052 176.953 30.2773 175.633 28.928C174.313 27.5787 172.641 26.904 170.617 26.904C168.593 26.904 166.921 27.5787 165.601 28.928C164.311 30.2773 163.665 32.052 163.665 34.252C163.665 36.452 164.311 38.2267 165.601 39.576C166.921 40.9253 168.593 41.6 170.617 41.6ZM211.165 22.504V46H205.929V43.008C205.049 44.064 203.949 44.8853 202.629 45.472C201.309 46.0293 199.886 46.308 198.361 46.308C195.222 46.308 192.743 45.4427 190.925 43.712C189.135 41.952 188.241 39.356 188.241 35.924V22.504H193.741V35.176C193.741 37.288 194.21 38.872 195.149 39.928C196.117 40.9547 197.481 41.468 199.241 41.468C201.206 41.468 202.761 40.8667 203.905 39.664C205.078 38.432 205.665 36.672 205.665 34.384V22.504H211.165ZM223.602 25.936C225.186 23.472 227.972 22.24 231.962 22.24V27.476C231.492 27.388 231.067 27.344 230.686 27.344C228.544 27.344 226.872 27.9747 225.67 29.236C224.467 30.468 223.866 32.2573 223.866 34.604V46H218.366V22.504H223.602V25.936ZM4.136 75.2H17.6C20.8853 75.2 23.804 75.8453 26.356 77.136C28.908 78.3973 30.888 80.2013 32.296 82.548C33.704 84.8653 34.408 87.5493 34.408 90.6C34.408 93.6507 33.704 96.3493 32.296 98.696C30.888 101.013 28.908 102.817 26.356 104.108C23.804 105.369 20.8853 106 17.6 106H4.136V75.2ZM17.336 101.16C19.5947 101.16 21.5747 100.735 23.276 99.884C25.0067 99.004 26.3267 97.772 27.236 96.188C28.1747 94.5747 28.644 92.712 28.644 90.6C28.644 88.488 28.1747 86.64 27.236 85.056C26.3267 83.4427 25.0067 82.2107 23.276 81.36C21.5747 80.48 19.5947 80.04 17.336 80.04H9.856V101.16H17.336ZM62.0476 94.384C62.0476 94.7653 62.0182 95.308 61.9596 96.012H43.5236C43.8462 97.7427 44.6822 99.1213 46.0316 100.148C47.4102 101.145 49.1116 101.644 51.1356 101.644C53.7169 101.644 55.8436 100.793 57.5156 99.092L60.4636 102.48C59.4076 103.741 58.0729 104.695 56.4596 105.34C54.8462 105.985 53.0276 106.308 51.0036 106.308C48.4222 106.308 46.1489 105.795 44.1836 104.768C42.2182 103.741 40.6929 102.319 39.6076 100.5C38.5516 98.652 38.0236 96.5693 38.0236 94.252C38.0236 91.964 38.5369 89.9107 39.5636 88.092C40.6196 86.244 42.0716 84.8067 43.9196 83.78C45.7676 82.7533 47.8502 82.24 50.1676 82.24C52.4556 82.24 54.4942 82.7533 56.2836 83.78C58.1022 84.7773 59.5102 86.2 60.5076 88.048C61.5342 89.8667 62.0476 91.9787 62.0476 94.384ZM50.1676 86.64C48.4076 86.64 46.9116 87.168 45.6796 88.224C44.4769 89.2507 43.7436 90.6293 43.4796 92.36H56.8116C56.5769 90.6587 55.8582 89.28 54.6556 88.224C53.4529 87.168 51.9569 86.64 50.1676 86.64ZM74.5907 106.308C72.684 106.308 70.8213 106.059 69.0027 105.56C67.184 105.061 65.732 104.431 64.6467 103.668L66.7587 99.488C67.8147 100.192 69.076 100.764 70.5427 101.204C72.0387 101.615 73.5053 101.82 74.9427 101.82C78.228 101.82 79.8707 100.955 79.8707 99.224C79.8707 98.4027 79.4453 97.8307 78.5947 97.508C77.7733 97.1853 76.4387 96.8773 74.5907 96.584C72.6547 96.2907 71.0707 95.9533 69.8387 95.572C68.636 95.1907 67.58 94.5307 66.6707 93.592C65.7907 92.624 65.3507 91.2893 65.3507 89.588C65.3507 87.3587 66.2747 85.584 68.1227 84.264C70 82.9147 72.5227 82.24 75.6907 82.24C77.304 82.24 78.9173 82.4307 80.5307 82.812C82.144 83.164 83.464 83.648 84.4907 84.264L82.3787 88.444C80.384 87.2707 78.14 86.684 75.6467 86.684C74.0333 86.684 72.8013 86.9333 71.9507 87.432C71.1293 87.9013 70.7187 88.532 70.7187 89.324C70.7187 90.204 71.1587 90.8347 72.0387 91.216C72.948 91.568 74.3413 91.9053 76.2187 92.228C78.096 92.5213 79.636 92.8587 80.8387 93.24C82.0413 93.6213 83.068 94.2667 83.9187 95.176C84.7987 96.0853 85.2387 97.376 85.2387 99.048C85.2387 101.248 84.2853 103.008 82.3787 104.328C80.472 105.648 77.876 106.308 74.5907 106.308ZM89.9752 82.504H95.4752V106H89.9752V82.504ZM92.7472 78.632C91.7499 78.632 90.9139 78.324 90.2392 77.708C89.5645 77.0627 89.2272 76.2707 89.2272 75.332C89.2272 74.3933 89.5645 73.616 90.2392 73C90.9139 72.3547 91.7499 72.032 92.7472 72.032C93.7445 72.032 94.5805 72.34 95.2552 72.956C95.9299 73.5427 96.2672 74.2907 96.2672 75.2C96.2672 76.168 95.9299 76.9893 95.2552 77.664C94.6099 78.3093 93.7739 78.632 92.7472 78.632ZM107.93 85.936C109.514 83.472 112.301 82.24 116.29 82.24V87.476C115.821 87.388 115.395 87.344 115.014 87.344C112.873 87.344 111.201 87.9747 109.998 89.236C108.795 90.468 108.194 92.2573 108.194 94.604V106H102.694V82.504H107.93V85.936ZM142.829 94.384C142.829 94.7653 142.799 95.308 142.741 96.012H124.305C124.627 97.7427 125.463 99.1213 126.813 100.148C128.191 101.145 129.893 101.644 131.917 101.644C134.498 101.644 136.625 100.793 138.297 99.092L141.245 102.48C140.189 103.741 138.854 104.695 137.241 105.34C135.627 105.985 133.809 106.308 131.785 106.308C129.203 106.308 126.93 105.795 124.965 104.768C122.999 103.741 121.474 102.319 120.389 100.5C119.333 98.652 118.805 96.5693 118.805 94.252C118.805 91.964 119.318 89.9107 120.345 88.092C121.401 86.244 122.853 84.8067 124.701 83.78C126.549 82.7533 128.631 82.24 130.949 82.24C133.237 82.24 135.275 82.7533 137.065 83.78C138.883 84.7773 140.291 86.2 141.289 88.048C142.315 89.8667 142.829 91.9787 142.829 94.384ZM130.949 86.64C129.189 86.64 127.693 87.168 126.461 88.224C125.258 89.2507 124.525 90.6293 124.261 92.36H137.593C137.358 90.6587 136.639 89.28 135.437 88.224C134.234 87.168 132.738 86.64 130.949 86.64Z" fill="white"/>
</svg>
